<svg version="1.1" xmlns="http://www.w3.org/2000/svg" viewBox="-223.500001 -523.500001 447.000002 1047.000002" fill="none" stroke="black" stroke-width="0.6%" vector-effect="non-scaling-stroke">
    <path d="M -200 -522.5 L 200 -522.5 A 22.5 22.5 0 0 1 222.4556 -501.41279 L 222.5 -500 L 222.5 500 L 222.32258 502.82 A 22.5 22.5 0 0 1 200 522.5 L -200 522.5 A 22.5 22.5 0 0 1 -222.4556 501.41279 L -222.5 500 L -222.5 -500 L -222.32258 -502.82 A 22.5 22.5 0 0 1 -200 -522.5 Z" />
    <path d="M -109.92115 -501.25333 A 10 10 0 0 1 -100 -510 L 100 -510 A 10 10 0 0 1 109.98027 -500.62791 L 110 -500 L 110 500 L 109.92115 501.25333 A 10 10 0 0 1 100 510 L -100 510 A 10 10 0 0 1 -109.98027 500.62791 L -110 500 L -110 -500 L -109.92115 -501.25333 Z" />
</svg>